<svg width="265.625" height="35.962" viewBox="0 0 265.625 35.962" xmlns="http://www.w3.org/2000/svg"><g id="svgGroup" stroke-linecap="round" fill-rule="evenodd" font-size="9pt" stroke="#000000" stroke-width="0.25mm" fill="#000000" style="stroke:#000000;stroke-width:0.25mm;fill:#000000"><path d="M 36.548 35.205 L 19.971 35.205 L 19.971 34.253 A 21.06 21.06 0 0 0 21.009 34.229 Q 21.947 34.183 22.558 34.045 A 3.259 3.259 0 0 0 23.108 33.875 A 1.825 1.825 0 0 0 23.544 33.62 A 1.194 1.194 0 0 0 23.999 32.642 Q 23.999 32.277 23.871 31.838 A 4.213 4.213 0 0 0 23.853 31.775 Q 23.716 31.33 23.494 30.79 A 16.45 16.45 0 0 0 23.462 30.713 L 21.265 25.415 L 9.058 25.415 L 7.617 28.809 Q 6.909 30.493 6.909 31.543 A 2.508 2.508 0 0 0 7.038 32.367 Q 7.283 33.075 7.996 33.484 A 4.142 4.142 0 0 0 8.788 33.823 Q 9.813 34.152 11.45 34.253 L 11.45 35.205 L 0 35.205 L 0 34.253 A 10.402 10.402 0 0 0 0.83 34.058 A 7.72 7.72 0 0 0 1.562 33.813 A 3.98 3.98 0 0 0 2.574 33.226 A 4.74 4.74 0 0 0 2.844 32.996 A 5.445 5.445 0 0 0 3.347 32.463 Q 3.582 32.179 3.816 31.833 A 10.435 10.435 0 0 0 4.028 31.506 A 14.376 14.376 0 0 0 4.472 30.739 Q 4.865 30.011 5.298 29.053 L 18.311 0.049 L 18.799 0.049 L 31.567 29.102 Q 32.087 30.272 32.565 31.131 A 14.69 14.69 0 0 0 32.861 31.641 Q 33.329 32.407 33.789 32.923 A 5.212 5.212 0 0 0 34.07 33.215 Q 34.614 33.737 35.168 33.966 A 2.555 2.555 0 0 0 35.278 34.009 Q 35.889 34.229 36.548 34.253 L 36.548 35.205 Z M 20.361 23.56 L 15.259 11.646 L 9.961 23.56 L 20.361 23.56 Z" id="0" vector-effect="non-scaling-stroke"/><path d="M 71.899 11.914 L 70.898 11.914 A 15.819 15.819 0 0 0 70.147 9.518 A 12.475 12.475 0 0 0 69.226 7.69 A 12.478 12.478 0 0 0 67.694 5.671 A 10.644 10.644 0 0 0 66.638 4.688 Q 65.161 3.491 63.416 2.893 A 11.033 11.033 0 0 0 59.814 2.295 A 11.553 11.553 0 0 0 57.257 2.566 A 8.962 8.962 0 0 0 54.761 3.528 Q 52.612 4.761 51.172 6.885 A 14.29 14.29 0 0 0 49.597 9.993 A 17.899 17.899 0 0 0 49.023 11.877 A 24.558 24.558 0 0 0 48.36 16.393 A 28.538 28.538 0 0 0 48.315 17.993 A 31.14 31.14 0 0 0 48.554 21.916 A 26.146 26.146 0 0 0 48.926 24.109 A 16.809 16.809 0 0 0 49.781 26.924 A 13.384 13.384 0 0 0 50.879 29.065 A 9.875 9.875 0 0 0 54.321 32.385 A 8.795 8.795 0 0 0 57.043 33.379 A 12.278 12.278 0 0 0 59.399 33.594 A 17.451 17.451 0 0 0 61.116 33.513 Q 61.98 33.428 62.741 33.251 A 10.807 10.807 0 0 0 62.842 33.228 Q 64.355 32.861 65.71 32.092 A 14.401 14.401 0 0 0 67.473 30.904 A 17.538 17.538 0 0 0 68.384 30.139 A 39.338 39.338 0 0 0 69.584 29.012 Q 70.386 28.229 71.265 27.295 L 71.265 30.298 A 37.355 37.355 0 0 1 68.909 32.507 A 13.32 13.32 0 0 1 66.551 34.118 A 14.995 14.995 0 0 1 66.174 34.314 A 13.488 13.488 0 0 1 64.319 35.075 A 17.315 17.315 0 0 1 62.683 35.522 Q 60.718 35.962 58.057 35.962 A 28.346 28.346 0 0 1 54.813 35.785 A 21.111 21.111 0 0 1 51.917 35.254 A 20.266 20.266 0 0 1 49.055 34.287 A 16.276 16.276 0 0 1 47.107 33.301 Q 45.02 32.056 43.518 30.359 A 15.802 15.802 0 0 1 41.064 26.66 Q 40.112 24.658 39.661 22.449 Q 39.209 20.239 39.209 17.993 Q 39.209 15.747 39.856 13.55 Q 40.503 11.353 41.699 9.351 Q 42.896 7.349 44.592 5.652 A 18.874 18.874 0 0 1 48.413 2.71 Q 50.537 1.465 53.015 0.757 A 18.719 18.719 0 0 1 57.567 0.06 A 21.101 21.101 0 0 1 58.252 0.049 Q 60.229 0.049 61.951 0.439 A 32.725 32.725 0 0 1 63.58 0.851 A 24.022 24.022 0 0 1 65.027 1.306 Q 65.958 1.633 66.688 1.92 A 28.205 28.205 0 0 1 67.31 2.173 Q 68.165 2.533 68.543 2.561 A 0.819 0.819 0 0 0 68.604 2.563 Q 69.088 2.563 69.433 2.395 A 1.362 1.362 0 0 0 69.507 2.356 A 2.077 2.077 0 0 0 70.133 1.805 A 2.37 2.37 0 0 0 70.142 1.794 A 3.244 3.244 0 0 0 70.47 1.256 A 3.891 3.891 0 0 0 70.593 0.977 A 18.614 18.614 0 0 0 70.861 0.253 A 20.99 20.99 0 0 0 70.947 0 L 71.899 0 L 71.899 11.914 Z" id="1" vector-effect="non-scaling-stroke"/><path d="M 112.451 22.791 A 17.377 17.377 0 0 0 113.11 17.993 A 17.377 17.377 0 0 0 112.451 13.196 A 17.491 17.491 0 0 0 110.583 8.899 A 18.451 18.451 0 0 0 107.703 5.273 Q 106.03 3.638 103.992 2.478 Q 101.953 1.318 99.622 0.684 Q 97.29 0.049 94.8 0.049 Q 92.31 0.049 89.99 0.684 Q 87.671 1.318 85.645 2.478 A 18.19 18.19 0 0 0 81.946 5.273 Q 80.273 6.909 79.077 8.899 Q 77.881 10.889 77.222 13.196 A 17.377 17.377 0 0 0 76.563 17.993 A 17.337 17.337 0 0 0 77.222 22.803 Q 77.881 25.098 79.077 27.1 Q 80.273 29.102 81.946 30.737 A 18.19 18.19 0 0 0 85.645 33.533 Q 87.671 34.692 89.99 35.327 A 18.137 18.137 0 0 0 94.8 35.962 Q 97.29 35.962 99.622 35.327 Q 101.953 34.692 103.992 33.533 A 18.045 18.045 0 0 0 107.703 30.737 A 18.291 18.291 0 0 0 110.583 27.1 A 17.712 17.712 0 0 0 112.451 22.791 Z M 103.955 17.993 A 37.695 37.695 0 0 0 103.815 14.79 A 41.572 41.572 0 0 0 103.772 14.319 A 28.13 28.13 0 0 0 103.174 10.645 Q 102.759 8.862 102.075 7.288 A 11.533 11.533 0 0 0 100.937 5.24 A 10.154 10.154 0 0 0 100.378 4.517 A 7.434 7.434 0 0 0 97.986 2.637 A 6.496 6.496 0 0 0 96.043 2.041 A 8.455 8.455 0 0 0 94.8 1.953 Q 92.993 1.953 91.626 2.649 Q 90.259 3.345 89.246 4.517 A 9.92 9.92 0 0 0 87.924 6.496 A 11.814 11.814 0 0 0 87.561 7.275 A 20.53 20.53 0 0 0 86.527 10.423 A 22.625 22.625 0 0 0 86.475 10.645 A 26.818 26.818 0 0 0 85.889 14.319 A 41.35 41.35 0 0 0 85.72 17.546 A 37.604 37.604 0 0 0 85.718 17.993 Q 85.718 19.8 85.889 21.692 A 26.818 26.818 0 0 0 86.475 25.366 A 20.508 20.508 0 0 0 87.397 28.326 A 18.664 18.664 0 0 0 87.561 28.723 A 11.092 11.092 0 0 0 88.646 30.704 A 9.714 9.714 0 0 0 89.246 31.482 Q 90.259 32.666 91.626 33.362 A 6.318 6.318 0 0 0 93.558 33.968 A 8.278 8.278 0 0 0 94.8 34.058 A 7.964 7.964 0 0 0 96.487 33.886 A 6.246 6.246 0 0 0 97.986 33.362 A 7.663 7.663 0 0 0 100.378 31.482 A 10.499 10.499 0 0 0 101.749 29.417 A 12.322 12.322 0 0 0 102.075 28.723 A 19.362 19.362 0 0 0 103.094 25.699 A 21.467 21.467 0 0 0 103.174 25.366 A 28.13 28.13 0 0 0 103.772 21.692 A 38.397 38.397 0 0 0 103.955 17.993 Z" id="2" vector-effect="non-scaling-stroke"/><path d="M 151.465 0.806 L 151.465 1.758 A 8.795 8.795 0 0 0 150.211 1.841 Q 148.742 2.053 147.961 2.808 A 3.134 3.134 0 0 0 147.219 3.974 Q 147.028 4.478 146.943 5.108 A 8.203 8.203 0 0 0 146.875 6.201 L 146.875 35.962 L 145.972 35.962 L 122.754 7.349 L 122.754 29.81 A 6.317 6.317 0 0 0 122.873 31.079 Q 123.024 31.814 123.367 32.368 A 3.107 3.107 0 0 0 124.121 33.203 A 4.545 4.545 0 0 0 125.542 33.921 Q 126.599 34.253 128.027 34.253 L 128.027 35.205 L 115.82 35.205 L 115.82 34.253 A 8.949 8.949 0 0 0 117.256 34.145 Q 118.66 33.917 119.556 33.203 A 3.242 3.242 0 0 0 120.603 31.668 Q 120.874 30.872 120.874 29.81 L 120.874 4.956 A 46.059 46.059 0 0 0 120.496 4.478 Q 119.958 3.807 119.533 3.335 A 16.206 16.206 0 0 0 119.519 3.32 A 7.273 7.273 0 0 0 119.039 2.835 Q 118.714 2.536 118.396 2.332 A 3.592 3.592 0 0 0 117.439 1.892 A 3.345 3.345 0 0 0 117.249 1.843 Q 116.746 1.731 116.081 1.712 A 9.59 9.59 0 0 0 115.82 1.709 L 115.82 0.806 L 128.027 0.806 L 144.971 22.095 L 144.971 6.201 A 7.132 7.132 0 0 0 144.874 4.985 Q 144.627 3.562 143.75 2.808 A 3.77 3.77 0 0 0 142.545 2.128 Q 141.508 1.758 140.015 1.758 L 140.015 0.806 L 151.465 0.806 Z" id="3" vector-effect="non-scaling-stroke"/><path d="M 184.912 24.316 L 183.423 35.205 L 153.662 35.205 L 153.662 34.253 A 20.69 20.69 0 0 0 154.579 34.234 Q 155.492 34.193 156.134 34.066 A 6.129 6.129 0 0 0 156.177 34.058 Q 156.939 33.901 157.428 33.549 A 2.142 2.142 0 0 0 157.654 33.362 A 2.23 2.23 0 0 0 158.172 32.593 A 3.13 3.13 0 0 0 158.35 31.995 Q 158.473 31.366 158.508 30.501 A 17.598 17.598 0 0 0 158.521 29.81 L 158.521 6.201 A 16.811 16.811 0 0 0 158.498 5.312 Q 158.476 4.895 158.432 4.537 A 7.404 7.404 0 0 0 158.35 4.016 A 3.087 3.087 0 0 0 158.152 3.372 A 2.214 2.214 0 0 0 157.654 2.649 A 2.355 2.355 0 0 0 157.045 2.236 Q 156.765 2.101 156.422 2.01 A 4.564 4.564 0 0 0 156.177 1.953 Q 155.246 1.762 153.731 1.758 A 24.645 24.645 0 0 0 153.662 1.758 L 153.662 0.806 L 182.471 0.806 L 182.471 10.962 L 181.519 10.962 Q 181.055 8.496 180.225 6.897 A 7.826 7.826 0 0 0 179.215 5.387 A 6.424 6.424 0 0 0 178.113 4.37 A 7.249 7.249 0 0 0 176.217 3.399 A 9.308 9.308 0 0 0 175.024 3.076 A 17.038 17.038 0 0 0 173.327 2.826 Q 172.452 2.739 171.468 2.717 A 30.239 30.239 0 0 0 170.801 2.71 L 166.504 2.71 L 166.504 16.748 L 167.603 16.748 A 8.611 8.611 0 0 0 168.842 16.664 Q 169.49 16.57 170.027 16.369 A 4.377 4.377 0 0 0 170.569 16.125 Q 171.729 15.503 172.449 14.417 A 7.468 7.468 0 0 0 173.211 12.906 A 9.525 9.525 0 0 0 173.535 11.853 A 26.296 26.296 0 0 0 173.936 9.916 A 31.684 31.684 0 0 0 174.121 8.667 L 175.073 8.667 L 175.073 26.66 L 174.121 26.66 A 30.276 30.276 0 0 0 173.545 23.838 A 27.725 27.725 0 0 0 173.499 23.657 Q 173.12 22.217 172.412 21.118 A 5.335 5.335 0 0 0 170.557 19.36 A 4.584 4.584 0 0 0 169.347 18.89 Q 168.813 18.76 168.188 18.72 A 9.038 9.038 0 0 0 167.603 18.701 L 166.504 18.701 L 166.504 29.81 A 11.328 11.328 0 0 0 166.524 30.507 Q 166.544 30.835 166.585 31.117 A 5.193 5.193 0 0 0 166.65 31.482 A 2.298 2.298 0 0 0 166.843 32.035 A 1.814 1.814 0 0 0 167.236 32.556 A 2.003 2.003 0 0 0 167.71 32.874 Q 167.937 32.986 168.217 33.065 A 4.067 4.067 0 0 0 168.481 33.13 A 6.568 6.568 0 0 0 169.096 33.227 Q 169.74 33.301 170.605 33.301 Q 173.389 33.301 175.476 32.922 Q 177.563 32.544 179.163 31.543 A 8.809 8.809 0 0 0 181.383 29.537 A 10.657 10.657 0 0 0 181.921 28.796 A 14.525 14.525 0 0 0 182.825 27.215 Q 183.458 25.94 184.009 24.316 L 184.912 24.316 Z" id="4" vector-effect="non-scaling-stroke"/><path d="M 238.306 0.806 L 238.306 1.758 A 3.895 3.895 0 0 0 237.723 1.799 Q 237.411 1.846 237.152 1.948 A 2.102 2.102 0 0 0 236.926 2.051 A 2.486 2.486 0 0 0 236.347 2.485 Q 236.131 2.698 235.938 2.979 A 6.352 6.352 0 0 0 235.586 3.553 Q 235.429 3.842 235.276 4.179 A 12.323 12.323 0 0 0 235.095 4.602 Q 234.818 5.282 234.489 6.14 A 124.881 124.881 0 0 0 234.18 6.958 L 223.12 35.962 L 222.07 35.962 L 213.623 13.867 L 204.272 35.962 L 203.223 35.962 L 191.577 6.909 Q 190.901 5.232 190.393 4.221 A 16.233 16.233 0 0 0 190.344 4.126 Q 189.833 3.127 189.368 2.603 A 3.42 3.42 0 0 0 189.343 2.576 A 3.022 3.022 0 0 0 188.998 2.247 Q 188.687 1.998 188.367 1.904 Q 187.898 1.767 187.289 1.758 A 5.799 5.799 0 0 0 187.207 1.758 L 187.207 0.806 L 202.173 0.806 L 202.173 1.758 Q 200.827 1.758 200.106 2.084 A 1.982 1.982 0 0 0 199.89 2.197 A 1.445 1.445 0 0 0 199.204 3.227 A 2.328 2.328 0 0 0 199.17 3.638 Q 199.17 4.639 199.878 6.348 L 207.178 24.316 L 212.573 11.255 L 210.913 6.909 Q 210.229 5.127 209.656 4.102 A 7.934 7.934 0 0 0 209.237 3.429 Q 209.012 3.108 208.78 2.858 A 3.684 3.684 0 0 0 208.459 2.551 A 3.131 3.131 0 0 0 207.731 2.086 A 2.68 2.68 0 0 0 207.117 1.892 Q 206.396 1.758 205.42 1.758 L 205.42 0.806 L 222.119 0.806 L 222.119 1.758 A 18.497 18.497 0 0 0 221.213 1.778 Q 220.344 1.821 219.779 1.953 A 3.129 3.129 0 0 0 219.336 2.087 Q 218.636 2.365 218.526 3.069 A 1.792 1.792 0 0 0 218.506 3.345 A 2.86 2.86 0 0 0 218.543 3.776 Q 218.614 4.239 218.824 4.879 A 13.558 13.558 0 0 0 218.97 5.298 L 225.928 23.462 L 232.007 7.202 Q 232.322 6.363 232.519 5.668 A 13.434 13.434 0 0 0 232.581 5.444 A 6.838 6.838 0 0 0 232.722 4.789 Q 232.788 4.385 232.788 4.028 A 2.729 2.729 0 0 0 232.711 3.357 A 1.756 1.756 0 0 0 231.995 2.307 A 2.406 2.406 0 0 0 231.38 2.012 Q 230.615 1.758 229.37 1.758 L 229.37 0.806 L 238.306 0.806 Z" id="5" vector-effect="non-scaling-stroke"/><path d="M 262.378 0.049 L 263.208 0.049 L 263.477 11.499 L 262.427 11.499 Q 262.085 9.204 261.096 7.41 A 12.012 12.012 0 0 0 259.63 5.296 A 10.387 10.387 0 0 0 258.728 4.382 A 10.008 10.008 0 0 0 255.701 2.502 A 9.241 9.241 0 0 0 253.338 1.907 A 8.342 8.342 0 0 0 252.417 1.855 A 6.33 6.33 0 0 0 250.403 2.185 A 6.06 6.06 0 0 0 249.101 2.791 A 5.402 5.402 0 0 0 248.657 3.101 A 4.583 4.583 0 0 0 247.437 4.529 Q 246.973 5.371 246.973 6.396 A 4 4 0 0 0 247.778 8.862 A 8.436 8.436 0 0 0 248.877 10.055 A 11.067 11.067 0 0 0 249.89 10.864 A 20.158 20.158 0 0 0 251.57 11.932 A 25.376 25.376 0 0 0 252.869 12.622 A 273.751 273.751 0 0 1 256.079 14.243 A 297.908 297.908 0 0 1 256.299 14.355 A 52.236 52.236 0 0 1 259.729 16.284 A 15.858 15.858 0 0 1 262.543 18.464 A 14.81 14.81 0 0 1 262.708 18.628 Q 264.014 19.946 264.819 21.619 A 8.052 8.052 0 0 1 265.525 23.998 A 10.434 10.434 0 0 1 265.625 25.464 A 10.284 10.284 0 0 1 265.263 28.231 A 9.076 9.076 0 0 1 264.697 29.736 A 10.011 10.011 0 0 1 262.134 33.057 A 11.542 11.542 0 0 1 258.908 34.98 A 13.406 13.406 0 0 1 258.301 35.205 A 14.075 14.075 0 0 1 254.505 35.935 A 16.422 16.422 0 0 1 253.564 35.962 A 18.861 18.861 0 0 1 252.281 35.921 Q 251.68 35.88 251.165 35.798 A 8.414 8.414 0 0 1 250.415 35.645 A 21.727 21.727 0 0 1 249.529 35.4 Q 249.049 35.255 248.632 35.102 A 11.956 11.956 0 0 1 248.267 34.961 A 116.057 116.057 0 0 1 247.403 34.607 A 87.862 87.862 0 0 1 246.619 34.277 A 3.987 3.987 0 0 0 245.412 33.98 A 4.827 4.827 0 0 0 244.971 33.96 A 2.568 2.568 0 0 0 244.259 34.054 A 2.006 2.006 0 0 0 243.445 34.509 A 4.614 4.614 0 0 0 242.874 35.147 Q 242.636 35.465 242.42 35.85 A 7.772 7.772 0 0 0 242.358 35.962 L 241.479 35.962 L 241.479 22.998 L 242.48 22.998 A 11.058 11.058 0 0 0 242.782 24.65 A 13.398 13.398 0 0 0 243.03 25.488 A 14.555 14.555 0 0 0 244.153 28.027 A 14.908 14.908 0 0 0 245.813 30.408 A 11.715 11.715 0 0 0 247.986 32.397 A 10.632 10.632 0 0 0 250.623 33.752 A 9.006 9.006 0 0 0 253.046 34.232 A 10.569 10.569 0 0 0 253.711 34.253 A 6.673 6.673 0 0 0 255.92 33.875 A 6.7 6.7 0 0 0 257.726 32.928 A 6.324 6.324 0 0 0 257.861 32.825 Q 258.716 32.153 259.241 31.213 A 4.16 4.16 0 0 0 259.766 29.15 A 4.961 4.961 0 0 0 259.525 27.584 A 4.378 4.378 0 0 0 258.984 26.489 Q 258.203 25.342 256.909 24.402 A 20.033 20.033 0 0 0 255.158 23.27 A 24.632 24.632 0 0 0 253.979 22.632 A 1494.437 1494.437 0 0 1 250.623 20.923 A 46.735 46.735 0 0 1 247.266 19.031 A 15.853 15.853 0 0 1 244.336 16.711 Q 243.042 15.405 242.261 13.721 A 8.244 8.244 0 0 1 241.608 11.531 A 10.967 10.967 0 0 1 241.479 9.814 A 10.132 10.132 0 0 1 241.821 7.147 A 8.958 8.958 0 0 1 242.273 5.872 A 9.062 9.062 0 0 1 244.495 2.783 Q 245.923 1.489 247.9 0.769 A 11.939 11.939 0 0 1 250.816 0.119 A 14.697 14.697 0 0 1 252.271 0.049 Q 253.931 0.049 255.225 0.403 A 20.533 20.533 0 0 1 256.451 0.778 A 15.566 15.566 0 0 1 257.544 1.196 A 167.143 167.143 0 0 1 258.397 1.564 Q 258.916 1.791 259.363 1.99 A 4.422 4.422 0 0 0 260.064 2.238 A 3.215 3.215 0 0 0 260.864 2.344 A 1.058 1.058 0 0 0 261.395 2.213 Q 261.606 2.093 261.761 1.864 A 1.619 1.619 0 0 0 261.877 1.66 A 5.404 5.404 0 0 0 262.167 0.916 Q 262.285 0.538 262.367 0.107 A 8.801 8.801 0 0 0 262.378 0.049 Z" id="6" vector-effect="non-scaling-stroke"/></g></svg>